# xmcd
#
# Track frame offsets:
#	150
#	4952
#	9754
#	14556
#	19359
#	24161
#	28963
#	33766
#	38568
#	43370
#	48172
#	52974
#	57777
#	62580
#	67382
#	72185
#	76987
#	81789
#	86591
#	91393
#	96195
#	100998
#	105800
#	110603
#	115405
#	120058
#
# Disc length: 1662 seconds
#
# Revision: 0
# Processed by: cddbd v1.5.2PL0 Copyright (c) Steve Scherf et al.
# Submitted via: EasyCDDAExtractor 10.2.0.1
#
DISCID=42067c1a
DTITLE=Merrit and Eddie - Spiritword
DYEAR=2007
DGENRE=Gospel
TTITLE0=9/3
TTITLE1=9/10
TTITLE2=9/17
TTITLE3=9/24
TTITLE4=10/1
TTITLE5=10/8
TTITLE6=10/15
TTITLE7=10/22
TTITLE8=10/29
TTITLE9=11/5
TTITLE10=11/12
TTITLE11=11/19
TTITLE12=11/26
TTITLE13=12/3
TTITLE14=12/10
TTITLE15=12/17
TTITLE16=12/24
TTITLE17=12/31
TTITLE18=1/7/08
TTITLE19=1/14
TTITLE20=1/21
TTITLE21=1/28
TTITLE22=2/4
TTITLE23=2/11
TTITLE24=2/18
TTITLE25=2/25
EXTD=
EXTT0=
EXTT1=
EXTT2=
EXTT3=
EXTT4=
EXTT5=
EXTT6=
EXTT7=
EXTT8=
EXTT9=
EXTT10=
EXTT11=
EXTT12=
EXTT13=
EXTT14=
EXTT15=
EXTT16=
EXTT17=
EXTT18=
EXTT19=
EXTT20=
EXTT21=
EXTT22=
EXTT23=
EXTT24=
EXTT25=
PLAYORDER=
